<svg width="341" height="64" viewBox="0 0 341 64" fill="none" xmlns="http://www.w3.org/2000/svg">
<g clip-path="url(#clip0)">
<path d="M0 62.1599V1.52992H28.94C30.9458 1.50762 32.9331 1.91662 34.7671 2.72924C36.6011 3.54186 38.239 4.73912 39.57 6.23992C41.0168 7.7261 42.1536 9.48522 42.9141 11.4149C43.6747 13.3446 44.0438 15.4062 44 17.4799C44.0889 21.0388 43.1702 24.5504 41.35 27.6099C39.51 30.4699 37.22 32.1399 34.5 32.6099C37.02 33.2766 39.0633 35.4233 40.63 39.0499C42.3001 43.2032 43.0999 47.6551 42.98 52.1299C42.98 54.9999 43.05 57.1299 43.19 58.5799C43.2083 59.8166 43.4842 61.0358 44 62.1599H39.88C39.19 61.3499 38.75 59.8499 38.55 57.6699L38.24 48.9999C38.3344 45.2634 37.2879 41.5867 35.24 38.4599C33.3267 35.5999 30.9767 34.1699 28.19 34.1699H4.09V62.1699L0 62.1599ZM28.22 30.3699C29.7823 30.3797 31.3288 30.0566 32.7565 29.4221C34.1842 28.7875 35.4604 27.8561 36.5 26.6899C38.7459 24.3189 39.9612 21.1548 39.88 17.8899C39.935 14.6326 38.7231 11.4812 36.5 9.09992C35.4458 7.95883 34.1645 7.05086 32.7386 6.43432C31.3126 5.81778 29.7735 5.50631 28.22 5.51992H4.09V30.3699H28.22Z" fill="black"/>
<path d="M103.89 57.7699C101.894 55.9858 100.304 53.7939 99.2271 51.3425C98.1506 48.891 97.6128 46.2371 97.65 43.5599H101.74C101.714 45.7285 102.146 47.8781 103.008 49.8683C103.87 51.8585 105.141 53.6446 106.74 55.1099C108.331 56.6708 110.217 57.8998 112.287 58.7255C114.358 59.5513 116.571 59.9573 118.8 59.9199C123.529 60.0411 128.168 58.604 132 55.8299C135.62 53.1033 137.427 49.7966 137.42 45.9099C137.42 42.5766 135.82 39.7799 132.62 37.5199C129.42 35.2599 125.193 33.8966 119.94 33.4299C113.46 32.8899 108.28 31.0499 104.4 27.9099C102.589 26.5785 101.117 24.8388 100.104 22.832C99.0911 20.8252 98.5655 18.6079 98.57 16.3599C98.57 11.8599 100.547 8.00994 104.5 4.80994C108.553 1.56894 113.622 -0.134766 118.81 -5.55282e-05C124.377 -0.144788 129.825 1.61961 134.25 4.99994C138.477 8.33328 140.59 12.3533 140.59 17.0599H136.5C136.5 13.4533 134.763 10.3533 131.29 7.75994C127.682 5.10555 123.287 3.73924 118.81 3.87994C114.687 3.77765 110.651 5.07479 107.36 7.55994C104.233 9.93994 102.667 12.8699 102.66 16.3499C102.653 19.8299 104.29 22.7133 107.57 24.9999C110.903 27.3199 115.3 28.7166 120.76 29.1899C127.027 29.7433 132.07 31.5499 135.89 34.6099C137.645 35.9341 139.067 37.6496 140.043 39.62C141.019 41.5904 141.521 43.7613 141.51 45.9599C141.51 50.8733 139.297 55.0633 134.87 58.5299C130.275 62.0623 124.604 63.9055 118.81 63.7499C116.05 63.7995 113.308 63.2959 110.745 62.2688C108.183 61.2418 105.852 59.7121 103.89 57.7699Z" fill="black"/>
<path d="M316.44 1.53003H143.38V62.16H183V58.28H147.48V32.62H179.89V28.83H147.48V5.52003H208V62.16H212.1V5.52003H258.1V62.16H262.19V5.52003H309.84L287.3 62.16H291.91L299.68 42.74H327.68L335.45 62.16H340.15L316.44 1.53003ZM300.9 38.85L313.68 6.24003L326.16 38.85H300.9Z" fill="black"/>
<path d="M47.34 60.43L77.13 26.62L47.13 13.26C46.4062 14.1973 46.0093 15.3458 46 16.53L45.93 36.63L45.87 56.63C45.8492 58.0393 46.3762 59.4016 47.34 60.43Z" fill="#C4297D"/>
<path d="M47.08 13.2601L77.13 26.6201L84 3.61007C82.4539 2.529 80.666 1.84418 78.7933 1.61576C76.9207 1.38734 75.0206 1.62233 73.26 2.30007L55.14 9.30007L49.49 11.4701C48.5352 11.8298 47.7003 12.4499 47.08 13.2601V13.2601Z" fill="#E94591"/>
<path d="M84 3.61011L77.15 26.6101H92.15L88.66 10.6101C88.0498 7.77057 86.3843 5.26864 84 3.61011V3.61011Z" fill="#C9D646"/>
<path d="M51.32 62.1601H73.13C73.7673 62.1653 74.4006 62.0569 75 61.8401L77.18 26.6201L47.34 60.4301C47.8499 60.9752 48.4662 61.41 49.1507 61.7075C49.8353 62.0051 50.5735 62.1591 51.32 62.1601Z" fill="#65A270"/>
<path d="M95.65 42.8601L92.15 26.6201H77.15L75 61.8401C75.5154 61.665 76.001 61.4121 76.44 61.0901L93 48.8101L93.53 48.4201C94.3823 47.7968 95.036 46.9402 95.4122 45.9536C95.7884 44.967 95.871 43.8926 95.65 42.8601V42.8601Z" fill="#96CCA6"/>
</g>
<defs>
<clipPath id="clip0">
<rect width="340.16" height="63.7" fill="white"/>
</clipPath>
</defs>
</svg>
